<?xml version="1.0" encoding="UTF-8"?>
<svg version="1.1" xmlns="http://www.w3.org/2000/svg" width="384" height="384">
<path d="M0 0 C4.56783906 2.84221097 7.07413548 5.57919251 8.87695312 10.65551758 C9.41150116 12.13382553 9.41150116 12.13382553 9.95684814 13.64199829 C10.33202576 14.71533417 10.70720337 15.78867004 11.09375 16.89453125 C11.70268097 18.59227188 11.70268097 18.59227188 12.32391357 20.3243103 C13.43210203 23.41967393 14.53034893 26.51835466 15.62464905 29.61864853 C16.78381585 32.89442809 17.95620044 36.16546498 19.12792969 39.43676758 C20.58128273 43.4964814 22.03364899 47.55653274 23.48065186 51.61851501 C27.87206025 63.94499918 32.33822212 76.24371111 36.82232666 88.53677368 C38.8768369 94.17052408 40.92693039 99.8058796 42.9765625 105.44140625 C43.37555756 106.53835312 43.77455261 107.63529999 44.18563843 108.76548767 C47.05663747 116.66224257 49.91763048 124.56258302 52.7734375 132.46484375 C53.17030762 133.56295883 53.56717773 134.66107391 53.97607422 135.79246521 C55.85563728 140.99417058 57.73385844 146.19635632 59.61035156 151.39916992 C60.27407976 153.23747062 60.93781625 155.07576832 61.6015625 156.9140625 C62.04850967 158.15524086 62.04850967 158.15524086 62.50448608 159.42149353 C63.26739684 161.53341379 64.03886861 163.64199045 64.8125 165.75 C65.33517456 167.202854 65.33517456 167.202854 65.8684082 168.68505859 C67.18731302 171.56980049 69.33808419 172.79063726 71.8125 174.75 C73.55159918 177.0574877 75.16714665 179.34137476 76.75 181.75 C77.72033395 183.19339471 78.69173888 184.63606986 79.6640625 186.078125 C80.17485352 186.83931641 80.68564453 187.60050781 81.21191406 188.38476562 C83.96771646 192.4570984 86.7983285 196.47668717 89.625 200.5 C90.81648943 202.19916042 92.00789488 203.89837974 93.19921875 205.59765625 C93.79524902 206.44730957 94.3912793 207.29696289 95.00537109 208.17236328 C96.8036083 210.73731713 98.59950256 213.30389366 100.39453125 215.87109375 C105.41587593 223.05193402 110.43828084 230.23165557 115.50219727 237.38256836 C116.97404723 239.46331078 118.44053785 241.54774352 119.90625 243.6328125 C121.90619301 246.47648147 123.93113573 249.30041161 125.96875 252.1171875 C126.97955262 253.53618348 127.98998285 254.95544483 129 256.375 C129.47010498 257.01405273 129.94020996 257.65310547 130.42456055 258.31152344 C130.85551025 258.92286133 131.28645996 259.53419922 131.73046875 260.1640625 C132.10969482 260.6895166 132.4889209 261.2149707 132.87963867 261.75634766 C134.95604175 266.19390524 135.21199985 270.19144034 133.6953125 274.79711914 C133.12588279 276.29949245 132.53882399 277.79526188 131.9375 279.28515625 C131.46371666 280.51415901 131.46371666 280.51415901 130.98036194 281.76799011 C129.93974482 284.45575323 128.87646831 287.13390452 127.8125 289.8125 C127.07996733 291.6899107 126.34878376 293.56784832 125.61889648 295.44628906 C123.73669798 300.27838352 121.83511379 305.10259188 119.92791748 309.92486572 C118.51573808 313.50163989 117.11452016 317.08264518 115.71405029 320.66401672 C112.59909454 328.62961042 109.45779366 336.58421149 106.2868042 344.52766418 C104.51692328 348.96489668 102.77525008 353.41204368 101.05078125 357.8671875 C100.26348251 359.86997321 99.47576433 361.87259413 98.6875 363.875 C98.35758057 364.74543945 98.02766113 365.61587891 97.68774414 366.51269531 C95.51384495 371.96175632 93.2095074 375.0514963 87.8125 377.75 C82.68537666 378.1369527 79.99844832 377.69059609 75.8125 374.75 C70.48522826 369.14626307 66.27687226 362.56937203 62.0546875 356.12109375 C59.51691725 352.2708025 56.85504579 348.51106579 54.1875 344.75 C49.70780509 338.43140033 45.24960854 332.0985912 40.8125 325.75 C36.21774045 319.18086493 31.61708772 312.61596633 27 306.0625 C26.23526367 304.97485352 26.23526367 304.97485352 25.45507812 303.86523438 C23.30404575 300.66904119 23.30404575 300.66904119 20.8125 297.75 C20.41458252 298.87494873 20.01666504 299.99989746 19.60668945 301.15893555 C18.12067045 305.34805369 16.6159943 309.53026771 15.10571289 313.71069336 C14.45577787 315.51779425 13.81085506 317.32670626 13.17114258 319.13745117 C12.24845659 321.74635117 11.30768666 324.34811449 10.36328125 326.94921875 C10.08285477 327.75461594 9.80242828 328.56001312 9.51350403 329.38981628 C7.45682864 334.97697778 4.94301817 338.74013425 -0.1953125 342.0390625 C-5.35089593 343.87889816 -10.6358467 343.43962369 -15.5625 341.25 C-22.02129945 335.09876242 -24.43208421 325.11939503 -27.4375 316.9375 C-27.89640625 315.71095703 -28.3553125 314.48441406 -28.828125 313.22070312 C-29.26125 312.04830078 -29.694375 310.87589844 -30.140625 309.66796875 C-30.53411133 308.60344482 -30.92759766 307.5389209 -31.33300781 306.44213867 C-32.1875 303.75 -32.1875 303.75 -32.1875 300.75 C-32.8475 300.75 -33.5075 300.75 -34.1875 300.75 C-34.43717529 301.43578125 -34.68685059 302.1215625 -34.9440918 302.828125 C-36.39023054 306.22639488 -38.18823873 309.33945277 -40.08203125 312.5 C-40.65766815 313.46975769 -40.65766815 313.46975769 -41.24493408 314.45910645 C-42.49277513 316.55838967 -43.74610654 318.65432712 -45 320.75 C-45.86588374 322.20242644 -46.73168727 323.65490071 -47.59741211 325.10742188 C-53.87797593 335.62904748 -60.25931412 346.08371502 -66.77050781 356.46435547 C-68.20331578 358.77551126 -69.60144039 361.10473579 -70.9921875 363.44140625 C-71.66109009 364.55128906 -71.66109009 364.55128906 -72.34350586 365.68359375 C-73.16197647 367.04329345 -73.97108441 368.40870266 -74.76782227 369.78125 C-77.31195162 373.96985863 -79.88288353 376.41451659 -84.1875 378.75 C-87.89910189 379.20581076 -90.32303734 379.07931911 -93.8125 377.75 C-100.58102026 372.05019347 -103.95767285 362.33035874 -107.6875 354.5 C-108.30585837 353.21067276 -108.92443357 351.92144949 -109.54321289 350.63232422 C-114.18175324 340.94769649 -118.7109929 331.2132031 -123.1965332 321.45678711 C-126.14320496 315.07030875 -129.15828286 308.72749152 -132.265625 302.41796875 C-132.60856094 301.71937744 -132.95149689 301.02078613 -133.30482483 300.30102539 C-134.9711841 296.90762607 -136.64670759 293.51940089 -138.33959961 290.13916016 C-146.25840529 274.17762544 -146.25840529 274.17762544 -144.0390625 267.07421875 C-142.25466144 263.87057887 -140.47562185 260.69133076 -138.5625 257.5625 C-137.99595703 256.63087036 -137.99595703 256.63087036 -137.41796875 255.68041992 C-136.53146915 254.22332144 -135.64296153 252.76744359 -134.75292969 251.3125 C-132.96707228 248.38917509 -131.1901526 245.46051932 -129.4140625 242.53125 C-126.52575021 237.76812209 -123.63520639 233.00636426 -120.7421875 228.24609375 C-117.35503269 222.67256275 -113.97003822 217.09772647 -110.58752441 211.52137756 C-108.78331581 208.54730092 -106.97777378 205.57405271 -105.16894531 202.6027832 C-102.03915637 197.46012305 -98.91983174 192.31249863 -95.8515625 187.1328125 C-95.35253418 186.2970166 -94.85350586 185.4612207 -94.33935547 184.60009766 C-93.44251214 183.09661214 -92.55279852 181.58883608 -91.67236328 180.07568359 C-88.95970484 175.55012641 -86.19635469 171.98568331 -81.14428711 169.91088867 C-78.60665898 168.40540873 -78.31169429 167.30568025 -77.42578125 164.51953125 C-77.12124023 163.59785156 -76.81669922 162.67617187 -76.50292969 161.7265625 C-76.17196289 160.68242187 -75.84099609 159.63828125 -75.5 158.5625 C-74.70307359 156.16147751 -73.90194705 153.76184686 -73.09765625 151.36328125 C-72.8757663 150.69801422 -72.65387634 150.03274719 -72.42526245 149.34732056 C-69.26617699 139.92140699 -65.83350116 130.59245579 -62.4375 121.25 C-61.71289248 119.25298807 -60.98844867 117.25591672 -60.26416016 115.25878906 C-59.12353255 112.11385092 -57.98271978 108.96898088 -56.84118652 105.82437134 C-53.83185401 97.53325068 -50.83417359 89.237955 -47.83984375 80.94140625 C-43.82661103 69.82230118 -39.80189946 58.70742227 -35.76358032 47.59739685 C-33.58137318 41.5935537 -31.40699307 35.58704812 -29.2447052 29.57600403 C-28.14721637 26.53390901 -27.03852199 23.4960191 -25.92520142 20.45968628 C-25.44209385 19.13539237 -24.96369711 17.80936818 -24.49057007 16.48147583 C-19.78537861 3.29093292 -19.78537861 3.29093292 -12.8125 -0.5625 C-8.14493613 -1.7849572 -4.50854951 -1.76805863 0 0 Z M-7.1875 54.75 C-13.36493142 71.72111966 -19.53694565 88.69420564 -25.70458984 105.66888428 C-26.69696482 108.40009495 -27.68948628 111.13125232 -28.68212891 113.86236572 C-31.37922926 121.28328782 -34.07491315 128.70472035 -36.76713276 136.1274147 C-37.93599455 139.35001508 -39.10551611 142.5723722 -40.27670288 145.79412842 C-41.58642352 149.39710633 -42.8929692 153.00123086 -44.19921875 156.60546875 C-44.58996582 157.67904129 -44.98071289 158.75261383 -45.38330078 159.85871887 C-45.73980713 160.84402084 -46.09631348 161.82932281 -46.46362305 162.84448242 C-46.77414108 163.70007248 -47.08465912 164.55566254 -47.40458679 165.43717957 C-47.79212883 166.58202568 -47.79212883 166.58202568 -48.1875 167.75 C-48.5346405 168.74 -48.5346405 168.74 -48.88879395 169.75 C-49.2909485 172.44264418 -48.62911678 174.10622768 -47.69067383 176.65551758 C-47.15567261 178.13348564 -47.15567261 178.13348564 -46.60986328 179.64131165 C-46.00827393 181.25165535 -46.00827393 181.25165535 -45.39453125 182.89453125 C-44.77396851 184.59533089 -44.77396851 184.59533089 -44.14086914 186.33049011 C-43.00684927 189.43253231 -41.86343497 192.53079541 -40.71564102 195.62774658 C-39.51942345 198.86175072 -38.3346734 202.09994702 -37.14916992 205.33789062 C-35.67415408 209.36442156 -34.197882 213.39047478 -32.71626282 217.4145813 C-29.48215133 226.20011241 -26.28178388 234.99715913 -23.11063576 243.80560875 C-21.95961295 247.00204933 -20.80618518 250.1976221 -19.65307617 253.39331055 C-18.32954185 257.06140866 -17.0072134 260.72991109 -15.68936157 264.40005493 C-14.47133303 267.78945925 -13.24629843 271.17625062 -12.01953125 274.5625 C-11.65899658 275.57120651 -11.29846191 276.57991302 -10.92700195 277.6191864 C-10.5937793 278.5350502 -10.26055664 279.450914 -9.91723633 280.39453125 C-9.62972 281.19221924 -9.34220367 281.98990723 -9.04597473 282.81176758 C-8.24642026 284.9311934 -8.24642026 284.9311934 -6.1875 286.75 C4.1616728 258.31794824 14.49833991 229.88141876 24.80026627 201.43221283 C25.50063517 199.49824608 26.20115191 197.56433294 26.90170288 195.63043213 C28.20972799 192.01943454 29.51703944 188.40817886 30.82421875 184.796875 C31.21496582 183.71814117 31.60571289 182.63940735 32.00830078 181.52798462 C32.36480713 180.54260712 32.72131348 179.55722961 33.08862305 178.54199219 C33.39914108 177.68418152 33.70965912 176.82637085 34.02958679 175.94256592 C35.63023864 171.45990468 35.7489985 169.85583195 34.11621094 165.35961914 C33.71633469 164.24458511 33.31645844 163.12955109 32.90446472 161.98072815 C32.45646011 160.76118942 32.00845551 159.5416507 31.546875 158.28515625 C31.08041968 156.99551693 30.61476428 155.70558804 30.14985657 154.41539001 C28.89248297 150.93327219 27.62373511 147.45539829 26.35280228 143.97821045 C25.03657843 140.37128709 23.73070167 136.76062155 22.42358398 133.15039062 C19.49082151 125.05684961 16.54198609 116.96921512 13.59050751 108.88248444 C12.34366723 105.46494996 11.09885147 102.04667869 9.85400391 98.62841797 C4.52435518 83.99585308 -0.82134813 69.36921932 -6.1875 54.75 C-6.5175 54.75 -6.8475 54.75 -7.1875 54.75 Z M63.8125 205.75 C61.26811773 212.145182 58.72751 218.54185504 56.18920898 224.93945312 C55.32999863 227.10383961 54.47000524 229.26791546 53.60913086 231.43164062 C51.50716411 236.71546108 49.41777506 242.0035595 47.35229492 247.30175781 C45.63670395 251.69675491 43.85527356 256.05763045 42.0324707 260.40917969 C41.16425768 262.54857718 40.29664107 264.68821683 39.4296875 266.828125 C39.00530899 267.80495239 38.58093048 268.78177979 38.14369202 269.78820801 C36.07531493 274.83094588 36.07531493 274.83094588 36.38195801 280.12817383 C38.0966366 283.78032742 40.31645185 286.92410775 43.171875 289.78125 C47.17371002 294.0286228 50.35514372 298.67940893 53.625 303.5 C54.80563749 305.18956963 55.9892647 306.8770538 57.17578125 308.5625 C59.65780801 312.10037947 62.13387625 315.64232339 64.60546875 319.1875 C65.22639404 320.07727539 65.84731934 320.96705078 66.48706055 321.88378906 C67.66535324 323.57251241 68.84267085 325.26191673 70.01879883 326.95214844 C73.51773709 331.96240683 77.11231965 336.88642962 80.8125 341.75 C83.22990284 339.33259716 83.89245281 337.3082889 85.10546875 334.109375 C85.5646167 332.91151367 86.02376465 331.71365234 86.49682617 330.47949219 C87.25535855 328.47567103 88.0109938 326.47078195 88.76553345 324.4654541 C91.71464453 316.63535315 94.72235842 308.85721583 98.07060242 301.18743896 C99.54719015 297.79978194 100.98778653 294.39727882 102.42739868 290.99377441 C103.13886319 289.33963512 103.8675911 287.69280826 104.61386108 286.05407715 C109.04318483 277.07074833 109.04318483 277.07074833 108.8347168 267.48022461 C107.0417228 264.6160083 105.0935541 262.2373266 102.8125 259.75 C101.85265957 258.40144838 100.91171465 257.03911364 99.99609375 255.66015625 C99.08324392 254.37581309 98.16782046 253.09329576 97.25 251.8125 C96.20919375 250.34927239 95.16884916 248.88571632 94.12890625 247.421875 C93.59023926 246.66455078 93.05157227 245.90722656 92.49658203 245.12695312 C89.53952556 240.95329383 86.61590015 236.75628775 83.6875 232.5625 C79.51262465 226.59528179 75.33691331 220.62865618 71.125 214.6875 C70.72716309 214.12200439 70.32932617 213.55650879 69.91943359 212.97387695 C68.04568108 210.34154502 66.12874562 207.99636775 63.8125 205.75 Z M-80.1875 206.75 C-81.8222156 208.97826414 -81.8222156 208.97826414 -83.50390625 211.890625 C-84.17776367 213.01114258 -84.85162109 214.13166016 -85.54589844 215.28613281 C-86.28066617 216.52404865 -87.01536496 217.76200541 -87.75 219 C-88.50606476 220.26185562 -89.26291112 221.52324322 -90.02050781 222.78417969 C-91.60609044 225.42461225 -93.18821077 228.06707464 -94.76806641 230.7109375 C-98.26312325 236.55358886 -101.79985939 242.37090112 -105.3366394 248.18835449 C-106.41386466 249.96110419 -107.4895152 251.73479957 -108.56469727 253.50878906 C-109.56134399 255.15186035 -109.56134399 255.15186035 -110.578125 256.828125 C-111.19623047 257.85486328 -111.81433594 258.88160156 -112.45117188 259.93945312 C-113.53141607 261.68801488 -114.64701588 263.41582913 -115.81445312 265.10742188 C-116.28302734 265.78869141 -116.75160156 266.46996094 -117.234375 267.171875 C-117.64010742 267.7297168 -118.04583984 268.28755859 -118.46386719 268.86230469 C-120.01148204 272.89947002 -118.29567099 276.721755 -116.62792969 280.47509766 C-115.96273745 281.87508428 -115.28939397 283.2712174 -114.609375 284.6640625 C-114.2459903 285.4241864 -113.88260559 286.1843103 -113.50820923 286.96746826 C-112.32468451 289.43992905 -111.13104476 291.90736305 -109.9375 294.375 C-108.70931453 296.93548569 -107.48385659 299.49726518 -106.2585144 302.05911255 C-105.43395868 303.78256869 -104.60853691 305.50561075 -103.78225708 307.22824097 C-99.97790924 315.16419543 -96.25580174 323.13688245 -92.5625 331.125 C-92.01303711 332.31174316 -91.46357422 333.49848633 -90.89746094 334.72119141 C-89.65944617 337.3968357 -88.42266299 340.07303836 -87.1875 342.75 C-83.62263701 339.32991011 -81.23111685 335.71347453 -78.8125 331.4375 C-77.92745476 329.90398086 -77.0406378 328.3714833 -76.15234375 326.83984375 C-75.67651855 326.0185498 -75.20069336 325.19725586 -74.71044922 324.35107422 C-71.98745361 319.70041772 -69.17987987 315.10156836 -66.375 310.5 C-65.79113525 309.53674805 -65.20727051 308.57349609 -64.60571289 307.58105469 C-61.58898857 302.61932078 -58.5246801 297.69773993 -55.3671875 292.82421875 C-54.75979736 291.87643555 -54.15240723 290.92865234 -53.52661133 289.95214844 C-52.36887782 288.15055792 -51.19743413 286.35768178 -50.01049805 284.57519531 C-49.49269775 283.7653418 -48.97489746 282.95548828 -48.44140625 282.12109375 C-47.98064697 281.41911865 -47.5198877 280.71714355 -47.04516602 279.99389648 C-45.47410589 275.88355955 -46.83789167 272.58919293 -48.47167969 268.66748047 C-49.01211914 267.57838379 -49.55255859 266.48928711 -50.109375 265.3671875 C-50.40589966 264.76302505 -50.70242432 264.15886261 -51.00793457 263.53639221 C-51.64606915 262.23779165 -52.28761351 260.94086207 -52.93225098 259.64547729 C-54.6478467 256.19725488 -56.33824044 252.73669609 -58.03125 249.27734375 C-58.37754456 248.57132523 -58.72383911 247.8653067 -59.08062744 247.13789368 C-63.20613067 238.70691439 -67.13494534 230.186522 -71.06152344 221.66162109 C-71.56200195 220.57574707 -72.06248047 219.48987305 -72.578125 218.37109375 C-73.2282959 216.95461548 -73.2282959 216.95461548 -73.89160156 215.50952148 C-75.27483468 212.56402716 -76.72124222 209.6549362 -78.1875 206.75 C-78.8475 206.75 -79.5075 206.75 -80.1875 206.75 Z " fill="#03EEFC" transform="translate(197.1875,3.25)"/>
<path d="M0 0 C1.47006623 4.41019868 0.43537323 7.69388031 -1 12 C-1.825 12.45375 -2.65 12.9075 -3.5 13.375 C-6.24852772 14.77933274 -6.24852772 14.77933274 -6.8125 17.6875 C-6.874375 18.450625 -6.93625 19.21375 -7 20 C-7.66 20 -8.32 20 -9 20 C-10.62514468 21.45833358 -10.62514468 21.45833358 -12 23 C-12 19.02803449 -10.21151539 16.50886028 -8.25 13.1875 C-7.90195313 12.58357422 -7.55390625 11.97964844 -7.1953125 11.35742188 C-4.93578621 7.47019979 -2.52793577 3.71788751 0 0 Z " fill="#17E1E8" transform="translate(94,203)"/>
<path d="M0 0 C0.33 0 0.66 0 1 0 C1.25 5.625 1.25 5.625 -1 9 C-1.66 9 -2.32 9 -3 9 C-3.04241723 11.33294775 -3.04092937 13.66702567 -3 16 C-2.67 16.33 -2.34 16.66 -2 17 C-1.95936168 18.66617115 -1.957279 20.33388095 -2 22 C-0.68 22.33 0.64 22.66 2 23 C2 25.64 2 28.28 2 31 C-2.51984671 25.42995362 -5.88470462 18.45886151 -6.125 11.25 C-4.68491839 7.08976425 -2.68526681 3.49266123 0 0 Z " fill="#35D6DD" transform="translate(58,262)"/>
<path d="M0 0 C0.66 0 1.32 0 2 0 C2 0.66 2 1.32 2 2 C2.99 2.33 3.98 2.66 5 3 C5 3.66 5 4.32 5 5 C5.66 5.33 6.32 5.66 7 6 C7.33 6.99 7.66 7.98 8 9 C8.66 9.33 9.32 9.66 10 10 C11 12 12 14 13 16 C13.98165594 17.01801357 14.97591432 18.0246803 16 19 C16 19.66 16 20.32 16 21 C17.32 20.67 18.64 20.34 20 20 C19.67 22.31 19.34 24.62 19 27 C15.45814512 23.64229702 12.69343823 20.29262448 10.0625 16.1875 C7.21860066 11.81102492 4.27429453 7.61174364 1.03125 3.5234375 C0 2 0 2 0 0 Z " fill="#2BD6E3" transform="translate(251,346)"/>
<path d="M0 0 C0 0.33 0 0.66 0 1 C-1.98 1 -3.96 1 -6 1 C-6 1.66 -6 2.32 -6 3 C-6.99 3.33 -7.98 3.66 -9 4 C-9.67939174 5.99571323 -10.34561559 7.99594773 -11 10 C-14 12 -14 12 -18 12 C-17.6999825 8.49979578 -17.04266259 7.05095809 -14.75 4.3125 C-9.87239196 0.21087506 -6.3217015 -0.24790986 0 0 Z " fill="#15DDEB" transform="translate(194,2)"/>
<path d="M0 0 C2.62027436 2.62027436 3.48198873 5.57923297 4.6875 9 C4.92533203 9.64195313 5.16316406 10.28390625 5.40820312 10.9453125 C6.00166907 12.60910558 6.50730517 14.30363299 7 16 C6.67 16.66 6.34 17.32 6 18 C0.30889621 13.76194399 0.30889621 13.76194399 -0.9375 10.6875 C-1.02255694 7.03005158 -0.55187493 3.61784678 0 0 Z " fill="#12E4F0" transform="translate(241,114)"/>
<path d="M0 0 C1.1916143 3.57484289 0.74788456 4.28587882 -0.65234375 7.66796875 C-1.01650391 8.56064453 -1.38066406 9.45332031 -1.75585938 10.37304688 C-2.14580078 11.30181641 -2.53574219 12.23058594 -2.9375 13.1875 C-3.32357422 14.12787109 -3.70964844 15.06824219 -4.10742188 16.03710938 C-5.06321649 18.36169628 -6.02767007 20.68229199 -7 23 C-8.231394 19.30581799 -7.64432764 16.7943739 -7 13 C-6.34 13 -5.68 13 -5 13 C-5 12.071875 -5 11.14375 -5 10.1875 C-5 8.125 -5 6.0625 -5 4 C-4.360625 3.71125 -3.72125 3.4225 -3.0625 3.125 C-0.84793921 2.17176549 -0.84793921 2.17176549 0 0 Z " fill="#23D3E2" transform="translate(248,239)"/>
<path d="M0 0 C2.05264866 2.05264866 2.56528526 3.13767959 3.5078125 5.80859375 C3.77207031 6.55560547 4.03632813 7.30261719 4.30859375 8.07226562 C4.57800781 8.85279297 4.84742188 9.63332031 5.125 10.4375 C5.40214844 11.21416016 5.67929688 11.99082031 5.96484375 12.79101562 C8 18.61076047 8 18.61076047 8 22 C7.34 22 6.68 22 6 22 C6 22.66 6 23.32 6 24 C5.34 24 4.68 24 4 24 C3 21 3 21 3 18 C2.71147878 16.0587844 2.39578615 14.12153279 2.0625 12.1875 C1.88847656 11.17042969 1.71445313 10.15335938 1.53515625 9.10546875 C1.35855469 8.08066406 1.18195313 7.05585937 1 6 C0.66554459 4.00018734 0.3318787 2.0002419 0 0 Z " fill="#1ADDE9" transform="translate(229,81)"/>
<path d="M0 0 C3.3145146 4.20876539 5.45859956 8.74477637 7.75 13.5625 C8.17410156 14.42552734 8.59820312 15.28855469 9.03515625 16.17773438 C9.43089844 17.00724609 9.82664062 17.83675781 10.234375 18.69140625 C10.59756836 19.44623291 10.96076172 20.20105957 11.33496094 20.97875977 C12 23 12 23 11 26 C10.01 25.67 9.02 25.34 8 25 C7.49969632 23.06549245 7.0101706 21.12698501 6.59765625 19.171875 C5.8510812 16.45883104 4.42972279 14.31608404 2.953125 11.94140625 C1.12110244 8.20978653 0.62383144 4.07952927 0 0 Z " fill="#1ED9E7" transform="translate(97,318)"/>
<path d="M0 0 C0.33 0 0.66 0 1 0 C0.88648483 1.81325551 0.75887039 3.62563357 0.625 5.4375 C0.55539063 6.44683594 0.48578125 7.45617187 0.4140625 8.49609375 C0.27742187 9.32238281 0.14078125 10.14867188 0 11 C-0.99 11.495 -0.99 11.495 -2 12 C-2.68729254 14.11846285 -2.68729254 14.11846285 -3.125 16.5625 C-3.29257813 17.38878906 -3.46015625 18.21507813 -3.6328125 19.06640625 C-3.75398437 19.70449219 -3.87515625 20.34257813 -4 21 C-4.66 21 -5.32 21 -6 21 C-6.66 22.32 -7.32 23.64 -8 25 C-6.43889635 16.25781959 -3.21518143 8.24016625 0 0 Z " fill="#1BD9E4" transform="translate(151,80)"/>
<path d="M0 0 C1.11132812 3.72705078 1.11132812 3.72705078 0.109375 6.18359375 C-0.33921875 6.92738281 -0.7878125 7.67117187 -1.25 8.4375 C-1.94802734 9.60925781 -1.94802734 9.60925781 -2.66015625 10.8046875 C-3.10230469 11.52914062 -3.54445313 12.25359375 -4 13 C-4.556875 14.010625 -5.11375 15.02125 -5.6875 16.0625 C-6.120625 16.701875 -6.55375 17.34125 -7 18 C-7.66 18 -8.32 18 -9 18 C-9 18.66 -9 19.32 -9 20 C-9.66 20 -10.32 20 -11 20 C-9.36047417 15.3606824 -6.93128948 11.36144142 -4.375 7.1875 C-3.95476562 6.49462891 -3.53453125 5.80175781 -3.1015625 5.08789062 C-2.0710533 3.38989252 -1.03598319 1.69466386 0 0 Z " fill="#1CDBE4" transform="translate(80,226)"/>
<path d="M0 0 C0.33 0 0.66 0 1 0 C1.144375 1.11375 1.28875 2.2275 1.4375 3.375 C1.78372035 6.82142047 1.78372035 6.82142047 3 9 C2.34 9 1.68 9 1 9 C0.7525 9.53625 0.505 10.0725 0.25 10.625 C-1.29696975 13.56424252 -3.13014369 16.25754408 -5 19 C-6.4216868 14.73493961 -4.65386682 11.79962257 -3.0625 7.8125 C-2.77181641 7.06291016 -2.48113281 6.31332031 -2.18164062 5.54101562 C-1.46274964 3.69075523 -0.73245347 1.84493352 0 0 Z " fill="#1CDBE9" transform="translate(204,252)"/>
<path d="M0 0 C0.66 0 1.32 0 2 0 C2.66 2.64 3.32 5.28 4 8 C4.66 8 5.32 8 6 8 C6 8.99 6 9.98 6 11 C7.32 10.34 8.64 9.68 10 9 C10 12.96 10 16.92 10 21 C7.95829455 18.27772607 6.5532598 16.35012013 5.17578125 13.3984375 C4.86962891 12.74359375 4.56347656 12.08875 4.24804688 11.4140625 C3.78495117 10.40472656 3.78495117 10.40472656 3.3125 9.375 C2.99216797 8.694375 2.67183594 8.01375 2.34179688 7.3125 C0 2.25941165 0 2.25941165 0 0 Z " fill="#24DAE8" transform="translate(70,314)"/>
<path d="M0 0 C0.33 0 0.66 0 1 0 C1.25 6.625 1.25 6.625 -1 10 C-0.68269476 13.63939932 -0.68269476 13.63939932 0 17 C-1.98 17.66 -3.96 18.32 -6 19 C-5.28739906 14.71620357 -3.93078264 10.74906147 -2.4375 6.6875 C-2.20353516 6.04232422 -1.96957031 5.39714844 -1.72851562 4.73242188 C-1.15552993 3.15378781 -0.57820536 1.57672974 0 0 Z " fill="#24D5E6" transform="translate(221,205)"/>
<path d="M0 0 C2.96503513 2.96503513 3.81603603 6.52963443 5.1875 10.4375 C5.47302734 11.21416016 5.75855469 11.99082031 6.05273438 12.79101562 C6.31763672 13.53931641 6.58253906 14.28761719 6.85546875 15.05859375 C7.09934326 15.74236084 7.34321777 16.42612793 7.59448242 17.13061523 C8 19 8 19 7 22 C7 21.34 7 20.68 7 20 C6.34 20 5.68 20 5 20 C5 19.34 5 18.68 5 18 C4.34 18 3.68 18 3 18 C2.87625 16.80375 2.7525 15.6075 2.625 14.375 C2.1787198 10.71420875 1.19082427 7.49308452 0 4 C0 2.68 0 1.36 0 0 Z " fill="#1CDAE7" transform="translate(208,23)"/>
<path d="M0 0 C0.66 0 1.32 0 2 0 C0.47146065 4.27186525 -1.71509481 7.99326863 -4.125 11.8125 C-4.49753906 12.40998047 -4.87007813 13.00746094 -5.25390625 13.62304688 C-6.1657048 15.08426251 -7.08235976 16.54244585 -8 18 C-9.34780093 15.30439815 -8.67336458 14.257383 -7.75 11.4375 C-7.37101562 10.22900391 -7.37101562 10.22900391 -6.984375 8.99609375 C-6.65953125 8.33738281 -6.3346875 7.67867187 -6 7 C-5.01 6.67 -4.02 6.34 -3 6 C-2.26676204 3.98491642 -2.26676204 3.98491642 -2 2 C-1.34 2 -0.68 2 0 2 C0 1.34 0 0.68 0 0 Z " fill="#1DDDEB" transform="translate(99,236)"/>
<path d="M0 0 C3.01693943 2.85674795 5.40554531 5.82348931 7.75 9.25 C8.67039062 10.58804687 8.67039062 10.58804687 9.609375 11.953125 C10.06828125 12.62859375 10.5271875 13.3040625 11 14 C10.67 14.66 10.34 15.32 10 16 C7.5 13.6875 7.5 13.6875 5 11 C5 10.01 5 9.02 5 8 C3.35 8 1.7 8 0 8 C0 5.36 0 2.72 0 0 Z " fill="#23D5DF" transform="translate(260,320)"/>
<path d="M0 0 C1.15507777 3.93421227 0.83585767 6.97268577 0 11 C-0.99 11.495 -0.99 11.495 -2 12 C-2.7166207 14.31847874 -3.38242027 16.65319703 -4 19 C-4.33 19.66 -4.66 20.32 -5 21 C-5.99 20.67 -6.98 20.34 -8 20 C-7 17 -7 17 -5 14 C-4.08222456 11.61100272 -3.20911197 9.22996988 -2.375 6.8125 C-2.03082031 5.83120117 -2.03082031 5.83120117 -1.6796875 4.83007812 C-1.11604856 3.22135865 -0.55752016 1.61085023 0 0 Z " fill="#1DD5E4" transform="translate(197,271)"/>
<path d="M0 0 C0.99 0.33 1.98 0.66 3 1 C3 1.66 3 2.32 3 3 C4.32 3.33 5.64 3.66 7 4 C7.12375 4.804375 7.2475 5.60875 7.375 6.4375 C7.684375 7.7059375 7.684375 7.7059375 8 9 C8.66 9.33 9.32 9.66 10 10 C10.625 12.5625 10.625 12.5625 11 15 C11.66 15 12.32 15 13 15 C13.33 16.65 13.66 18.3 14 20 C10.1950683 16.54177937 7.54480364 12.58188753 4.75 8.3125 C4.29109375 7.62349609 3.8321875 6.93449219 3.359375 6.22460938 C0 1.14055525 0 1.14055525 0 0 Z " fill="#22D8E3" transform="translate(274,226)"/>
<path d="M0 0 C1.3274855 3.98245651 -0.00092171 6.44789543 -1.4375 10.1875 C-1.68048828 10.84169922 -1.92347656 11.49589844 -2.17382812 12.16992188 C-2.7743293 13.78303286 -3.38609203 15.3919435 -4 17 C-4.33 17 -4.66 17 -5 17 C-5.36279456 15.71073008 -5.71496698 14.41846728 -6.0625 13.125 C-6.25972656 12.40570313 -6.45695313 11.68640625 -6.66015625 10.9453125 C-7 9 -7 9 -6 7 C-4.68 7 -3.36 7 -2 7 C-2.04125 6.21625 -2.0825 5.4325 -2.125 4.625 C-2 2 -2 2 0 0 Z " fill="#12E0F1" transform="translate(159,140)"/>
<path d="M0 0 C0.66 0 1.32 0 2 0 C2 1.32 2 2.64 2 4 C2.66 4 3.32 4 4 4 C4 5.65 4 7.3 4 9 C4.66 9 5.32 9 6 9 C6 10.65 6 12.3 6 14 C6.66 14 7.32 14 8 14 C8 16.64 8 19.28 8 22 C6.35795535 19.53693303 5.45155224 17.78171367 4.4921875 15.05859375 C4.22792969 14.31029297 3.96367187 13.56199219 3.69140625 12.79101562 C3.42199219 12.01435547 3.15257812 11.23769531 2.875 10.4375 C2.59785156 9.65697266 2.32070312 8.87644531 2.03515625 8.07226562 C0 2.26254618 0 2.26254618 0 0 Z " fill="#22D5DE" transform="translate(217,130)"/>
<path d="M0 0 C0.33 0.66 0.66 1.32 1 2 C0.67 2.99 0.34 3.98 0 5 C0.66 5.33 1.32 5.66 2 6 C-1 9 -4 12 -7 15 C-7.33 14.34 -7.66 13.68 -8 13 C-6.75506252 10.71025684 -5.47358472 8.55809966 -4.0625 6.375 C-3.67642578 5.76398438 -3.29035156 5.15296875 -2.89257812 4.5234375 C-1.93553674 3.0110758 -0.96867189 1.50493883 0 0 Z " fill="#1EDDE7" transform="translate(133,309)"/>
<path d="M0 0 C4.54075781 4.14010271 7.71842138 8.82390176 11 14 C10.67 14.66 10.34 15.32 10 16 C8.68 15.34 7.36 14.68 6 14 C6.33 13.01 6.66 12.02 7 11 C6.34 11 5.68 11 5 11 C4.71125 10.360625 4.4225 9.72125 4.125 9.0625 C3.17176549 6.84793921 3.17176549 6.84793921 1 6 C0.375 2.9375 0.375 2.9375 0 0 Z " fill="#1DDAE9" transform="translate(316,247)"/>
<path d="M0 0 C0.33 0 0.66 0 1 0 C1.33 2.31 1.66 4.62 2 7 C1.34 7 0.68 7 0 7 C0 8.65 0 10.3 0 12 C-0.66 12 -1.32 12 -2 12 C-2 12.66 -2 13.32 -2 14 C-2.66 14 -3.32 14 -4 14 C-4.33 15.32 -4.66 16.64 -5 18 C-6.39214652 13.82356045 -4.70664266 11.16562207 -3.0625 7.3125 C-2.77181641 6.61060547 -2.48113281 5.90871094 -2.18164062 5.18554688 C-1.46289687 3.45349225 -0.73254669 1.72626219 0 0 Z " fill="#1ED8E6" transform="translate(295,302)"/>
<path d="M0 0 C3.59478807 3.32850747 6.22364768 6.98971331 9 11 C8.67 11.66 8.34 12.32 8 13 C6.02 12.01 4.04 11.02 2 10 C2 8.68 2 7.36 2 6 C1.34 6 0.68 6 0 6 C0 4.02 0 2.04 0 0 Z " fill="#19DDEB" transform="translate(288,207)"/>
<path d="M0 0 C1.485 0.99 1.485 0.99 3 2 C3 2.99 3 3.98 3 5 C3.66 5 4.32 5 5 5 C5 5.99 5 6.98 5 8 C6.32 8.33 7.64 8.66 9 9 C8.34 10.32 7.68 11.64 7 13 C6.34 13 5.68 13 5 13 C5 11.68 5 10.36 5 9 C4.01 9 3.02 9 2 9 C1.34 6.03 0.68 3.06 0 0 Z " fill="#11E4F0" transform="translate(214,121)"/>
<path d="M0 0 C0.4125 0.474375 0.825 0.94875 1.25 1.4375 C3.182185 3.16266518 4.48192275 3.56584875 7 4 C6.67 6.31 6.34 8.62 6 11 C6.66 11 7.32 11 8 11 C8 12.65 8 14.3 8 16 C5.70351643 13.10414095 3.95652443 10.1827969 2.3125 6.875 C1.65701172 5.57175781 1.65701172 5.57175781 0.98828125 4.2421875 C0 2 0 2 0 0 Z " fill="#21D7E1" transform="translate(125,223)"/>
<path d="M0 0 C0.66 0 1.32 0 2 0 C1.86722656 0.56847656 1.73445312 1.13695312 1.59765625 1.72265625 C0.5115242 6.47151097 -0.38312382 11.16780324 -1 16 C-1.66 15.67 -2.32 15.34 -3 15 C-3 12.36 -3 9.72 -3 7 C-3.66 6.67 -4.32 6.34 -5 6 C-4.34 5.34 -3.68 4.68 -3 4 C-2.67 4.33 -2.34 4.66 -2 5 C-1.34 3.35 -0.68 1.7 0 0 Z " fill="#11E1F0" transform="translate(150,162)"/>
<path d="M0 0 C1.2077558 3.62326739 0.54311128 4.64146369 -1 8 C-1.66 8 -2.32 8 -3 8 C-2.67 9.32 -2.34 10.64 -2 12 C-5.75 15 -5.75 15 -8 15 C-6.62712658 11.30123909 -4.93644547 8.0485524 -2.875 4.6875 C-2.33617188 3.80449219 -1.79734375 2.92148438 -1.2421875 2.01171875 C-0.83226563 1.34785156 -0.42234375 0.68398437 0 0 Z " fill="#22D5DD" transform="translate(103,188)"/>
<path d="M0 0 C2.3129482 2.3129482 2.49580975 3.47904875 3.125 6.625 C3.29257813 7.44226563 3.46015625 8.25953125 3.6328125 9.1015625 C3.81457031 10.04128906 3.81457031 10.04128906 4 11 C2.68 11 1.36 11 0 11 C-0.33 11.66 -0.66 12.32 -1 13 C-2.08416595 9.0970026 -1.92020735 7.50155458 0 4 C0 2.68 0 1.36 0 0 Z " fill="#13E1F1" transform="translate(170,236)"/>
<path d="M0 0 C0.66 0 1.32 0 2 0 C4.87940913 6.4150557 6.5464821 11.97047248 7 19 C4.39350532 16.39350532 3.55975019 13.46865679 2.375 10.0625 C2.03082031 9.11213867 2.03082031 9.11213867 1.6796875 8.14257812 C0.67198284 5.29041404 0 3.04816693 0 0 Z " fill="#24D4E0" transform="translate(207,102)"/>
<path d="M0 0 C2.6072902 2.6072902 3.48026787 5.5359257 4.6875 8.9375 C4.92533203 9.57107422 5.16316406 10.20464844 5.40820312 10.85742188 C7.12148952 15.63553144 7.12148952 15.63553144 6 19 C3.25784615 15.81234216 2.26642135 13.01059274 1.3125 8.9375 C1.06113281 7.89464844 0.80976563 6.85179687 0.55078125 5.77734375 C0 3 0 3 0 0 Z " fill="#1FD7E5" transform="translate(182,269)"/>
<path d="M0 0 C1.36420006 4.09260018 -0.2335485 6.47012659 -1.9375 10.1875 C-2.22818359 10.84169922 -2.51886719 11.49589844 -2.81835938 12.16992188 C-3.53695343 13.78381344 -4.2673588 15.39243655 -5 17 C-6.11446742 13.65659775 -5.85175268 12.31739772 -5.125 8.9375 C-4.94195312 8.05964844 -4.75890625 7.18179687 -4.5703125 6.27734375 C-4 4 -4 4 -3 2 C-2.01 2 -1.02 2 0 2 C0 1.34 0 0.68 0 0 Z " fill="#23D5E0" transform="translate(297,359)"/>
<path d="M0 0 C1.12607217 3.37821652 0.89106825 5.08646195 0.3125 8.5625 C0.09013672 10.01849609 0.09013672 10.01849609 -0.13671875 11.50390625 C-1 14 -1 14 -3.08203125 15.33984375 C-3.71496094 15.55769531 -4.34789062 15.77554688 -5 16 C-4.34309381 12.21760329 -3.279869 8.78158474 -1.9375 5.1875 C-1.57527344 4.21167969 -1.21304688 3.23585937 -0.83984375 2.23046875 C-0.42412109 1.12638672 -0.42412109 1.12638672 0 0 Z " fill="#20D6E1" transform="translate(212,230)"/>
<path d="M0 0 C3.9252025 3.70090521 6.94580156 7.54959656 10 12 C9.67 12.66 9.34 13.32 9 14 C8.4225 13.195625 7.845 12.39125 7.25 11.5625 C5.01873107 9.02133261 4.25543229 8.34879632 1 8 C0.67 5.36 0.34 2.72 0 0 Z " fill="#21D7E5" transform="translate(306,233)"/>
<path d="M0 0 C1.53445094 3.06890187 0.54984289 5.70094266 0 9 C-0.99 9.33 -1.98 9.66 -3 10 C-4.66710346 11.49985609 -4.66710346 11.49985609 -6 13 C-6 9.32965255 -4.9247108 7.9000569 -3 4.8125 C-2.443125 3.91144531 -1.88625 3.01039063 -1.3125 2.08203125 C-0.6628125 1.05142578 -0.6628125 1.05142578 0 0 Z " fill="#25D9E6" transform="translate(88,213)"/>
<path d="M0 0 C0.33 0 0.66 0 1 0 C1.25 6.625 1.25 6.625 -1 10 C-1.33 11.03125 -1.66 12.0625 -2 13.125 C-3 16 -3 16 -5 17 C-3.83348574 11.07136283 -2.24480642 5.61201606 0 0 Z " fill="#23D5DE" transform="translate(230,180)"/>
<path d="M0 0 C2.475 0.495 2.475 0.495 5 1 C4.814375 1.845625 4.62875 2.69125 4.4375 3.5625 C3.96470368 7.2773282 4.33935369 10.32974273 5 14 C3.37723842 11.56585763 2.38255208 9.68680554 1.375 7 C0.98441406 5.9790625 0.98441406 5.9790625 0.5859375 4.9375 C0 3 0 3 0 0 Z " fill="#20D8E5" transform="translate(171,320)"/>
<path d="M0 0 C0.66 0 1.32 0 2 0 C2 0.99 2 1.98 2 3 C2.66 3 3.32 3 4 3 C6.56687367 6.8503105 5.83288724 8.58569763 5 13 C3.09610151 10.14415227 2.30537823 8.0688238 1.375 4.8125 C0.98441406 3.46091797 0.98441406 3.46091797 0.5859375 2.08203125 C0.39257812 1.39496094 0.19921875 0.70789063 0 0 Z " fill="#1AD9E8" transform="translate(193,64)"/>
<path d="M0 0 C0.66 0.99 1.32 1.98 2 3 C0.79618552 5.49361571 -0.45428722 7.68143083 -2 10 C-2.99 10 -3.98 10 -5 10 C-3.66511872 6.40608886 -2.03977277 3.24509304 0 0 Z " fill="#1ADCE6" transform="translate(139,299)"/>
<path d="M0 0 C1.32830615 3.98491845 0.23204404 5.40048548 -1.4375 9.1875 C-1.91058594 10.27417969 -2.38367188 11.36085938 -2.87109375 12.48046875 C-3.42990234 13.72763672 -3.42990234 13.72763672 -4 15 C-4.33 15 -4.66 15 -5 15 C-5 13.02 -5 11.04 -5 9 C-4.34 9 -3.68 9 -3 9 C-3.33 7.02 -3.66 5.04 -4 3 C-3.01 2.67 -2.02 2.34 -1 2 C-0.67 1.34 -0.34 0.68 0 0 Z " fill="#24D6E0" transform="translate(324,290)"/>
<path d="M0 0 C0.66 0 1.32 0 2 0 C1.36843005 5.05255964 -0.13459373 9.29593201 -2 14 C-2.33 14 -2.66 14 -3 14 C-3 11.36 -3 8.72 -3 6 C-2.34 6 -1.68 6 -1 6 C-0.67 4.02 -0.34 2.04 0 0 Z " fill="#23D3DE" transform="translate(208,320)"/>
<path d="M0 0 C0.66 0 1.32 0 2 0 C1.00956295 4.83628305 0.04301154 9.47618873 -2 14 C-2.33 14 -2.66 14 -3 14 C-3.34615998 8.34605369 -2.43425238 4.96993194 0 0 Z " fill="#24D2DD" transform="translate(213,306)"/>
<path d="M0 0 C2.52394612 3.12488567 4.39701907 6.31314387 6 10 C5.67 10.66 5.34 11.32 5 12 C1.6443794 9.7629196 1.80721959 9.57482962 1 6 C0.34 5.67 -0.32 5.34 -1 5 C-0.67 3.35 -0.34 1.7 0 0 Z " fill="#19DFE9" transform="translate(91,306)"/>
<path d="M0 0 C0.33 0 0.66 0 1 0 C1 1.65 1 3.3 1 5 C2.98 5.495 2.98 5.495 5 6 C5 8.64 5 11.28 5 14 C1.20937727 9.17557107 -0.28418033 6.25196725 0 0 Z " fill="#20DDE9" transform="translate(55,279)"/>
<path d="M0 0 C2 3 2 3 1.828125 5.19140625 C1.63734375 5.97386719 1.4465625 6.75632812 1.25 7.5625 C1.06953125 8.34753906 0.8890625 9.13257812 0.703125 9.94140625 C0 12 0 12 -2 14 C-2.05389087 12.04196493 -2.09274217 10.08351091 -2.125 8.125 C-2.14820313 7.03445312 -2.17140625 5.94390625 -2.1953125 4.8203125 C-2 2 -2 2 0 0 Z " fill="#1BD8EA" transform="translate(166,115)"/>
<path d="M0 0 C0.66 0 1.32 0 2 0 C2.33 1.32 2.66 2.64 3 4 C4.32 3.67 5.64 3.34 7 3 C6.67 5.31 6.34 7.62 6 10 C2.46413986 6.82679218 0.41421969 4.83256305 0 0 Z " fill="#18DFEB" transform="translate(264,363)"/>
<path d="M0 0 C0.33 0.66 0.66 1.32 1 2 C-0.73407158 7.20221474 -2.34133287 9.85225194 -7 13 C-5.35821735 8.22390502 -2.73453298 4.20617096 0 0 Z " fill="#27D2DD" transform="translate(147,286)"/>
<path d="M0 0 C0.66 0 1.32 0 2 0 C3.7265625 2.1171875 3.7265625 2.1171875 5.625 4.875 C6.25664062 5.77992188 6.88828125 6.68484375 7.5390625 7.6171875 C9 10 9 10 9 12 C8.34 12 7.68 12 7 12 C6.525625 11.195625 6.05125 10.39125 5.5625 9.5625 C4.20016328 6.7081924 4.20016328 6.7081924 1 6 C0.67 4.02 0.34 2.04 0 0 Z " fill="#19DAE5" transform="translate(274,188)"/>
<path d="M0 0 C0.33 0 0.66 0 1 0 C1.4375 2.125 1.4375 2.125 1 5 C-1.12689146 7.276147 -3.5023433 9.1458722 -6 11 C-4.55007731 6.89188572 -2.54592427 3.53144334 0 0 Z " fill="#20DAE4" transform="translate(110,177)"/>
<path d="M0 0 C1.25955231 3.77865693 0.48087189 5.03411786 -0.9375 8.6875 C-1.31777344 9.68136719 -1.69804687 10.67523438 -2.08984375 11.69921875 C-2.39019531 12.45847656 -2.69054687 13.21773437 -3 14 C-3.33 14 -3.66 14 -4 14 C-4 11.69 -4 9.38 -4 7 C-3.34 7 -2.68 7 -2 7 C-2.04125 6.21625 -2.0825 5.4325 -2.125 4.625 C-2 2 -2 2 0 0 Z " fill="#22D2E1" transform="translate(183,74)"/>
<path d="M0 0 C2.64752004 2.57784846 4.94432065 4.91648098 7 8 C7.66 7.67 8.32 7.34 9 7 C8.67 8.32 8.34 9.64 8 11 C1.29540481 5.9059081 1.29540481 5.9059081 0.0625 2.125 C0.041875 1.42375 0.02125 0.7225 0 0 Z " fill="#20D2E0" transform="translate(271,336)"/>
<path d="M0 0 C1.62276158 2.43414237 2.61744792 4.31319446 3.625 7 C3.88539063 7.680625 4.14578125 8.36125 4.4140625 9.0625 C5 11 5 11 5 14 C4.01 13.67 3.02 13.34 2 13 C1.855625 12.030625 1.71125 11.06125 1.5625 10.0625 C1.32437659 7.13513227 1.32437659 7.13513227 0 6 C-0.04080783 4.00041636 -0.04254356 1.99954746 0 0 Z " fill="#1AD7E7" transform="translate(159,205)"/>
<path d="M0 0 C1.60938465 2.41407698 2.65490738 4.34044437 3.6875 7 C3.95949219 7.680625 4.23148438 8.36125 4.51171875 9.0625 C5 11 5 11 4 14 C4 13.34 4 12.68 4 12 C3.34 12 2.68 12 2 12 C0.40861915 7.82262526 -0.21278058 4.46839215 0 0 Z " fill="#21D5E6" transform="translate(223,64)"/>
<path d="M0 0 C0.66 0 1.32 0 2 0 C0.6302836 3.99500618 -1.25722422 6.80009492 -4 10 C-4 8.02 -4 6.04 -4 4 C-2.68 3.67 -1.36 3.34 0 3 C0 2.01 0 1.02 0 0 Z " fill="#23D9E6" transform="translate(161,304)"/>
<path d="M0 0 C1.23593891 3.70781672 0.5678132 4.67510253 -0.9375 8.1875 C-1.31777344 9.08855469 -1.69804687 9.98960937 -2.08984375 10.91796875 C-2.54037109 11.94857422 -2.54037109 11.94857422 -3 13 C-3.33 13 -3.66 13 -4 13 C-4 10.69 -4 8.38 -4 6 C-3.34 6 -2.68 6 -2 6 C-2 4.68 -2 3.36 -2 2 C-1.34 2 -0.68 2 0 2 C0 1.34 0 0.68 0 0 Z " fill="#25D4E2" transform="translate(329,277)"/>
<path d="M0 0 C2.18975773 3.28463659 2.99806563 6.20696275 4 10 C2.02 8.68 0.04 7.36 -2 6 C-1.34 4.02 -0.68 2.04 0 0 Z " fill="#1BDCEF" transform="translate(244,122)"/>
<path d="M0 0 C1.23593891 3.70781672 0.5678132 4.67510253 -0.9375 8.1875 C-1.31777344 9.08855469 -1.69804687 9.98960937 -2.08984375 10.91796875 C-2.54037109 11.94857422 -2.54037109 11.94857422 -3 13 C-4.41687119 8.74938644 -3.19320039 6.28148375 -2 2 C-1.34 2 -0.68 2 0 2 C0 1.34 0 0.68 0 0 Z " fill="#24D4DB" transform="translate(302,346)"/>
<path d="M0 0 C1.23593891 3.70781672 0.5678132 4.67510253 -0.9375 8.1875 C-1.31777344 9.08855469 -1.69804687 9.98960937 -2.08984375 10.91796875 C-2.54037109 11.94857422 -2.54037109 11.94857422 -3 13 C-4.20930281 9.02902696 -3.56147135 6.86258703 -2 3 C-1.34 2.01 -0.68 1.02 0 0 Z " fill="#23D3E1" transform="translate(309,328)"/>
<path d="M0 0 C0.75 1.625 0.75 1.625 1 4 C-0.8125 7.25 -0.8125 7.25 -3 10 C-3.66 10 -4.32 10 -5 10 C-3.66511872 6.40608886 -2.03977277 3.24509304 0 0 Z " fill="#23D4DE" transform="translate(80,226)"/>
<path d="M0 0 C1.80125336 2.70188004 3.00243753 4.93057703 4 8 C3.67 8.99 3.34 9.98 3 11 C1 10 1 10 -0.1875 7.1875 C-0.96421451 4.14038924 -1.10096399 2.86250637 0 0 Z " fill="#17DEEA" transform="translate(164,219)"/>
<path d="M0 0 C0.66 0 1.32 0 2 0 C2.33 2.97 2.66 5.94 3 9 C1.35 7.35 -0.3 5.7 -2 4 C-1.34 2.68 -0.68 1.36 0 0 Z " fill="#19DDE8" transform="translate(267,211)"/>
<path d="M0 0 C2 1.75 2 1.75 4 4 C4 5.32 4 6.64 4 8 C2.68 7.67 1.36 7.34 0 7 C0 4.69 0 2.38 0 0 Z " fill="#16DFEF" transform="translate(260,320)"/>
<path d="M0 0 C0.33 0 0.66 0 1 0 C1.25 5.625 1.25 5.625 -1 9 C-1.66 9 -2.32 9 -3 9 C-2.5020163 5.26512223 -2.12508244 3.18762365 0 0 Z " fill="#1DDBE6" transform="translate(58,262)"/>
<path d="M0 0 C0.33 0.99 0.66 1.98 1 3 C0.67 3.66 0.34 4.32 0 5 C-0.66 5 -1.32 5 -2 5 C-2.66 6.32 -3.32 7.64 -4 9 C-4.66 7.68 -5.32 6.36 -6 5 C-5.195625 4.54625 -4.39125 4.0925 -3.5625 3.625 C-0.91143428 2.25274335 -0.91143428 2.25274335 0 0 Z " fill="#14E1EF" transform="translate(248,239)"/>
<path d="M0 0 C0.66 0.33 1.32 0.66 2 1 C1.67 4.3 1.34 7.6 1 11 C0.67 11 0.34 11 0 11 C0 8.69 0 6.38 0 4 C-0.66 4 -1.32 4 -2 4 C-2 3.01 -2 2.02 -2 1 C-1.34 0.67 -0.68 0.34 0 0 Z " fill="#0BEAF6" transform="translate(133,230)"/>
<path d="M0 0 C3.16717283 1.58358642 4.73268318 2.45263699 6.3125 5.6875 C6.539375 6.450625 6.76625 7.21375 7 8 C6.34 8 5.68 8 5 8 C5 7.34 5 6.68 5 6 C4.360625 5.7525 3.72125 5.505 3.0625 5.25 C1 4 1 4 0.25 1.875 C0.1675 1.25625 0.085 0.6375 0 0 Z " fill="#1FDAE0" transform="translate(264,175)"/>
<path d="M0 0 C0.66 0.33 1.32 0.66 2 1 C1.01 4.3 0.02 7.6 -1 11 C-1.66 11 -2.32 11 -3 11 C-2.69078116 9.54096742 -2.37751201 8.08279278 -2.0625 6.625 C-1.88847656 5.81289062 -1.71445313 5.00078125 -1.53515625 4.1640625 C-1 2 -1 2 0 0 Z " fill="#21D5E2" transform="translate(136,122)"/>
<path d="M0 0 C2.44839588 3.67259383 4 6.54648201 4 11 C3.34 11 2.68 11 2 11 C2 9.68 2 8.36 2 7 C1.34 7 0.68 7 0 7 C0 4.69 0 2.38 0 0 Z " fill="#20D7E4" transform="translate(177,255)"/>
<path d="M0 0 C0.33 0 0.66 0 1 0 C1 1.65 1 3.3 1 5 C0.01 5 -0.98 5 -2 5 C-2.33 6.65 -2.66 8.3 -3 10 C-3.66 10 -4.32 10 -5 10 C-3.85017555 6.10828647 -2.70784225 3.06103907 0 0 Z " fill="#22D6E2" transform="translate(68,246)"/>
<path d="M0 0 C1.65 0.33 3.3 0.66 5 1 C5 1.66 5 2.32 5 3 C3.02 3.66 1.04 4.32 -1 5 C-0.67 3.35 -0.34 1.7 0 0 Z " fill="#14DFED" transform="translate(216,219)"/>
<path d="M0 0 C0.66 0 1.32 0 2 0 C2 0.99 2 1.98 2 3 C2.66 3 3.32 3 4 3 C4 5.64 4 8.28 4 11 C1.54176828 7.31265242 0.98757384 4.30300029 0 0 Z " fill="#24D3E2" transform="translate(225,152)"/>
<path d="M0 0 C1.98 0.66 3.96 1.32 6 2 C5.67 2.99 5.34 3.98 5 5 C3.35 4.67 1.7 4.34 0 4 C0 2.68 0 1.36 0 0 Z " fill="#0FE1ED" transform="translate(196,338)"/>
<path d="M0 0 C0.66 0 1.32 0 2 0 C2 1.65 2 3.3 2 5 C1.01 5.33 0.02 5.66 -1 6 C-1 6.99 -1 7.98 -1 9 C-1.66 9 -2.32 9 -3 9 C-2.01 6.03 -1.02 3.06 0 0 Z " fill="#21D4E3" transform="translate(151,277)"/>
<path d="M0 0 C0.66 0 1.32 0 2 0 C0.66511872 3.59391114 -0.96022723 6.75490696 -3 10 C-4 8 -4 8 -3.0625 4.875 C-2.5365625 3.451875 -2.5365625 3.451875 -2 2 C-1.34 2 -0.68 2 0 2 C0 1.34 0 0.68 0 0 Z " fill="#2AD5E6" transform="translate(99,236)"/>
<path d="M0 0 C1.39195915 4.17587745 -0.17676781 6.13474776 -2 10 C-2.33 10 -2.66 10 -3 10 C-2.88637738 8.5199159 -2.75877092 7.04089926 -2.625 5.5625 C-2.55539063 4.73878906 -2.48578125 3.91507813 -2.4140625 3.06640625 C-2.27742187 2.38449219 -2.14078125 1.70257813 -2 1 C-1.34 0.67 -0.68 0.34 0 0 Z " fill="#21D4E2" transform="translate(257,216)"/>
<path d="M0 0 C1.65 0 3.3 0 5 0 C5 0.66 5 1.32 5 2 C5.66 2.33 6.32 2.66 7 3 C6.34 4.32 5.68 5.64 5 7 C4.34 5.02 3.68 3.04 3 1 C2.01 1.33 1.02 1.66 0 2 C0 1.34 0 0.68 0 0 Z " fill="#20D5E5" transform="translate(116,209)"/>
<path d="M0 0 C0.66 0 1.32 0 2 0 C1.71758359 1.46015291 1.42373386 2.91809793 1.125 4.375 C0.96257812 5.18710938 0.80015625 5.99921875 0.6328125 6.8359375 C0 9 0 9 -2 11 C-1.85892253 9.54119891 -1.71197585 8.08296449 -1.5625 6.625 C-1.48128906 5.81289062 -1.40007812 5.00078125 -1.31640625 4.1640625 C-1 2 -1 2 0 0 Z " fill="#26D1E0" transform="translate(150,162)"/>
<path d="M0 0 C1.13643966 3.40931897 0.86747764 4.00335456 -0.4375 7.1875 C-0.86869141 8.26064453 -0.86869141 8.26064453 -1.30859375 9.35546875 C-1.53675781 9.89816406 -1.76492187 10.44085938 -2 11 C-3.31826804 7.04519588 -2.29536133 4.88608399 -1 1 C-0.67 0.67 -0.34 0.34 0 0 Z " fill="#27D0DD" transform="translate(159,140)"/>
<path d="M0 0 C1.13643966 3.40931897 0.86747764 4.00335456 -0.4375 7.1875 C-0.86869141 8.26064453 -0.86869141 8.26064453 -1.30859375 9.35546875 C-1.53675781 9.89816406 -1.76492187 10.44085938 -2 11 C-2.33 11 -2.66 11 -3 11 C-3 8.69 -3 6.38 -3 4 C-2.34 4 -1.68 4 -1 4 C-0.67 2.68 -0.34 1.36 0 0 Z " fill="#22D2DC" transform="translate(178,88)"/>
<path d="M0 0 C1.70884005 1.62339805 3.37446717 3.29319053 5 5 C5 5.66 5 6.32 5 7 C3.68 7 2.36 7 1 7 C0.67 4.69 0.34 2.38 0 0 Z " fill="#1DD8E7" transform="translate(283,200)"/>
<path d="M0 0 C1.32 0 2.64 0 4 0 C4 0.66 4 1.32 4 2 C0.53846154 5 0.53846154 5 -2 5 C-1.34 3.35 -0.68 1.7 0 0 Z " fill="#18DCE9" transform="translate(97,198)"/>
<path d="M0 0 C0.99 0.33 1.98 0.66 3 1 C3 3.31 3 5.62 3 8 C0.9375 6.25 0.9375 6.25 -1 4 C-0.75 1.75 -0.75 1.75 0 0 Z " fill="#19CFDF" transform="translate(190,56)"/>
</svg>
